<svg width="110" height="24" viewBox="0 0 110 24" fill="none" xmlns="http://www.w3.org/2000/svg">
    <path
        d="M69.6918 16.58V7.44608H77.4947V8.98579H71.362V15.0403H77.5469V16.58H69.6918ZM70.6052 12.6654V11.1518H76.8292V12.6654H70.6052Z"
        fill="#1738A4" />
    <path
        d="M55.8421 16.58V7.44608H60.5526C61.3964 7.44608 62.1445 7.56786 62.7969 7.81143C63.4493 8.055 63.9973 8.38991 64.441 8.81616C64.8846 9.23371 65.2152 9.7165 65.4327 10.2645C65.6588 10.8126 65.7719 11.3954 65.7719 12.013C65.7719 12.6393 65.6588 13.2265 65.4327 13.7746C65.2152 14.3226 64.8803 14.8097 64.4279 15.236C63.9843 15.6535 63.4363 15.9841 62.7838 16.2277C62.1401 16.4625 61.3964 16.58 60.5526 16.58H55.8421ZM57.5384 15.2621L57.4079 15.0142H60.4873C61.1049 15.0142 61.6312 14.9359 62.0662 14.7793C62.5098 14.614 62.8708 14.3922 63.1492 14.1138C63.4363 13.8355 63.645 13.5179 63.7755 13.1613C63.9147 12.8046 63.9843 12.4219 63.9843 12.013C63.9843 11.6129 63.9147 11.2345 63.7755 10.8778C63.645 10.5212 63.4363 10.2036 63.1492 9.92527C62.8708 9.63821 62.5098 9.41639 62.0662 9.25981C61.6312 9.09453 61.1049 9.01189 60.4873 9.01189H57.3687L57.5384 8.79006V15.2621Z"
        fill="#1738A4" />
    <path
        d="M46.3131 16.7105C45.4954 16.7105 44.7429 16.593 44.0557 16.3582C43.3772 16.1146 42.7857 15.7797 42.2811 15.3534C41.7766 14.9185 41.3851 14.4183 41.1068 13.8529C40.8371 13.2787 40.7023 12.6611 40.7023 12C40.7023 11.3389 40.8371 10.7256 41.1068 10.1602C41.3851 9.58604 41.7766 9.08585 42.2811 8.6596C42.7857 8.22466 43.3772 7.88975 44.0557 7.65488C44.7429 7.41131 45.4954 7.28952 46.3131 7.28952C47.1308 7.28952 47.8789 7.41131 48.5574 7.65488C49.2446 7.88975 49.8362 8.22466 50.332 8.6596C50.8365 9.08585 51.228 9.58604 51.5064 10.1602C51.7847 10.7256 51.9239 11.3389 51.9239 12C51.9239 12.6611 51.7847 13.2787 51.5064 13.8529C51.228 14.4183 50.8365 14.9185 50.332 15.3534C49.8362 15.7797 49.2446 16.1146 48.5574 16.3582C47.8789 16.593 47.1308 16.7105 46.3131 16.7105ZM46.3131 15.0925C46.8872 15.0925 47.4091 15.0142 47.8789 14.8576C48.3486 14.701 48.7575 14.4835 49.1054 14.2052C49.4534 13.9181 49.7231 13.5876 49.9144 13.2135C50.1058 12.8394 50.2015 12.4349 50.2015 12C50.2015 11.5651 50.1058 11.1606 49.9144 10.7865C49.7231 10.4124 49.4534 10.0862 49.1054 9.80786C48.7575 9.5208 48.3486 9.29898 47.8789 9.1424C47.4091 8.98581 46.8872 8.90752 46.3131 8.90752C45.7476 8.90752 45.2257 8.98581 44.7473 9.1424C44.2688 9.29898 43.8556 9.5208 43.5077 9.80786C43.1684 10.0862 42.9031 10.4124 42.7117 10.7865C42.529 11.1606 42.4377 11.5651 42.4377 12C42.4377 12.4349 42.529 12.8394 42.7117 13.2135C42.9031 13.5876 43.1684 13.9181 43.5077 14.2052C43.8556 14.4835 44.2688 14.701 44.7473 14.8576C45.2257 15.0142 45.7476 15.0925 46.3131 15.0925Z"
        fill="#1738A4" />
    <path
        d="M26.7538 16.58V7.44608H28.411L35.5354 14.5836L35.3788 14.6358C35.3353 14.3487 35.2962 14.0573 35.2614 13.7615C35.2353 13.457 35.2135 13.1526 35.1961 12.8481C35.1787 12.5437 35.1613 12.2392 35.1439 11.9347C35.1352 11.6303 35.1265 11.3345 35.1178 11.0474C35.1178 10.7517 35.1178 10.4646 35.1178 10.1862V7.44608H36.8011V16.58H35.1178L27.9673 9.54687L28.1761 9.45553C28.1935 9.60341 28.2109 9.77739 28.2283 9.97747C28.2457 10.1775 28.2674 10.395 28.2935 10.6299C28.3196 10.8648 28.3414 11.117 28.3588 11.3867C28.3849 11.6477 28.4023 11.9217 28.411 12.2087C28.4283 12.4871 28.437 12.7655 28.437 13.0438V16.58H26.7538Z"
        fill="#1738A4" />
    <path
        d="M14.2548 16.58V7.44608H19.6699C20.2354 7.44608 20.7486 7.57221 21.2096 7.82448C21.6794 8.07675 22.0534 8.42036 22.3318 8.85531C22.6102 9.29025 22.7494 9.77739 22.7494 10.3167C22.7494 10.8909 22.5971 11.4084 22.2927 11.8695C21.9882 12.3305 21.5837 12.6959 21.0792 12.9656C20.5746 13.2352 20.0179 13.3701 19.409 13.3701H15.9511V16.58H14.2548ZM15.9511 11.8042H19.1871C19.5003 11.8042 19.7917 11.739 20.0614 11.6085C20.3311 11.4693 20.5442 11.291 20.7008 11.0735C20.866 10.8474 20.9487 10.5994 20.9487 10.3298C20.9487 10.0775 20.866 9.85568 20.7008 9.66431C20.5442 9.46423 20.3311 9.30765 20.0614 9.19456C19.7917 9.07278 19.5003 9.01189 19.1871 9.01189H15.9511V11.8042Z"
        fill="#1738A4" />
    <path
        d="M5.12441 16.6583C4.19363 16.6583 3.37593 16.4669 2.67131 16.0842C1.97539 15.6927 1.43171 15.1621 1.04026 14.4923C0.648805 13.8224 0.453079 13.0613 0.453079 12.2088V7.43307H2.16242V12.1566C2.16242 12.722 2.29291 13.2266 2.55387 13.6702C2.81484 14.1052 3.1715 14.4488 3.62384 14.701C4.07619 14.9533 4.57638 15.0794 5.12441 15.0794C5.71594 15.0794 6.23788 14.9533 6.69022 14.701C7.15127 14.4488 7.51227 14.1052 7.77324 13.6702C8.03421 13.2266 8.1647 12.722 8.1647 12.1566V7.43307H9.80879V12.2088C9.80879 13.0613 9.61307 13.8224 9.22162 14.4923C8.83016 15.1621 8.28648 15.6927 7.59056 16.0842C6.89465 16.4669 6.0726 16.6583 5.12441 16.6583Z"
        fill="#1738A4" />
    <g clip-path="url(#clip0_4293_3245)">
        <path
            d="M97.581 23.925C91.1946 23.925 86.0174 18.586 86.0174 12C86.0174 5.41401 91.1946 0.0750122 97.581 0.0750122C103.967 0.0750122 109.145 5.41401 109.145 12C109.145 18.586 103.967 23.925 97.581 23.925Z"
            fill="white" />
        <path
            d="M97.581 23.925C91.1946 23.925 86.0174 18.586 86.0174 12C86.0174 5.41401 91.1946 0.0750122 97.581 0.0750122C103.967 0.0750122 109.145 5.41401 109.145 12C109.145 18.586 103.967 23.925 97.581 23.925Z"
            stroke="#D0D5DD" stroke-width="0.2" />
        <path
            d="M97.3234 3.57284C97.3103 3.57452 97.2662 3.58043 97.2253 3.5855C96.9881 3.61502 96.7101 3.70613 96.4689 3.83437C95.8817 4.14567 95.3231 4.74128 94.8742 5.53347C94.8415 5.59168 94.8129 5.64062 94.8129 5.64062C94.8121 5.6423 94.7859 5.63555 94.7548 5.62627C94.4424 5.53262 94.0401 5.45079 93.6966 5.4103C93.5396 5.39258 93.0775 5.38499 92.9238 5.39765C92.2508 5.45501 91.7291 5.68364 91.3455 6.09112C91.2433 6.1991 91.1869 6.27081 91.1149 6.38133C90.9227 6.67661 90.8074 7.0166 90.7551 7.44432C90.7379 7.59031 90.7355 8.00453 90.751 8.16563C90.8221 8.88106 91.0315 9.59986 91.4109 10.4266C91.6195 10.8822 91.9163 11.4188 92.2099 11.8709C92.2541 11.9393 92.29 11.9975 92.29 11.9992C92.29 12.0017 92.2393 12.0827 92.1764 12.1805C91.4028 13.3861 90.9023 14.6229 90.7698 15.6547C90.7322 15.9482 90.7265 16.3388 90.7567 16.5759C90.8074 16.9843 90.9244 17.3259 91.1084 17.6102C91.469 18.1679 92.0357 18.4961 92.7971 18.5897C92.9451 18.6074 93.3458 18.615 93.5085 18.6023C93.8888 18.5729 94.2551 18.507 94.6657 18.3948C94.754 18.3704 94.8129 18.3577 94.8153 18.3636C94.8227 18.3872 94.9928 18.6724 95.0713 18.7922C95.5996 19.6013 96.199 20.1184 96.8606 20.3344C97.2008 20.4449 97.5876 20.4651 97.9449 20.3892C98.4389 20.2838 98.9255 19.9859 99.3719 19.5161C99.6467 19.2266 99.8978 18.8825 100.128 18.4809C100.167 18.4126 100.201 18.3569 100.204 18.3569C100.206 18.3569 100.262 18.3721 100.328 18.3906C100.68 18.4893 101.048 18.5602 101.392 18.5948C101.54 18.61 102.042 18.6091 102.173 18.5948C102.817 18.5214 103.321 18.2868 103.684 17.8928C104.001 17.5487 104.189 17.1041 104.255 16.5388C104.27 16.4156 104.27 15.9508 104.256 15.809C104.198 15.2345 104.046 14.6482 103.79 14.0121C103.651 13.667 103.422 13.1912 103.23 12.8487L103.186 12.7694L103.213 12.7179C103.299 12.5552 103.301 12.3712 103.22 12.2025C103.143 12.0413 103.004 11.9291 102.825 11.8853C102.732 11.8616 102.596 11.8658 102.508 11.8946C102.311 11.9587 102.174 12.0953 102.114 12.2868C102.096 12.3434 102.093 12.3695 102.093 12.4514C102.093 12.5332 102.096 12.5594 102.114 12.6158C102.165 12.7787 102.266 12.8951 102.418 12.9702C102.507 13.0133 102.551 13.0259 102.646 13.0326L102.718 13.0377L102.808 13.2022C102.933 13.4291 103.093 13.7531 103.189 13.9742C103.48 14.6381 103.642 15.1865 103.715 15.7542C103.741 15.9466 103.743 16.3701 103.72 16.5304C103.66 16.9514 103.52 17.2719 103.286 17.5276C103.02 17.8178 102.654 17.9907 102.156 18.059C102.022 18.0768 101.595 18.0802 101.441 18.0633C101.136 18.0304 100.732 17.9528 100.489 17.8802L100.445 17.8667L100.509 17.7199C101.01 16.5743 101.346 15.1898 101.49 13.6805C101.504 13.5329 101.506 13.4882 101.498 13.4528C101.473 13.3279 101.366 13.2419 101.237 13.241C101.184 13.241 101.167 13.2444 101.121 13.2663C101.072 13.2908 101.053 13.3094 100.891 13.4899C99.9108 14.5883 98.8592 15.5231 97.7348 16.2959C97.5263 16.4393 97.5066 16.4502 97.4895 16.441C97.4788 16.4351 97.3676 16.36 97.2417 16.2731C96.5188 15.7736 95.8481 15.2261 95.1564 14.5689C94.8636 14.2905 94.1603 13.5557 94.0556 13.4182C94.0385 13.3954 94.0352 13.3777 94.0229 13.1946C93.9919 12.7517 93.9869 12.5703 93.9877 11.9621C93.9877 11.3698 93.991 11.2652 94.0204 10.8104C94.0335 10.6172 94.0352 10.6072 94.0548 10.5827C94.1759 10.4309 94.7327 9.84368 95.0173 9.56611C96.4476 8.17411 97.9842 7.11108 99.4848 6.47329C99.5764 6.43448 99.6549 6.40242 99.6598 6.40242C99.6647 6.40242 99.6819 6.41339 99.6983 6.42689C99.8815 6.57537 100.173 6.58971 100.383 6.46064C100.445 6.42267 100.539 6.3265 100.576 6.26322C100.696 6.05906 100.679 5.80175 100.532 5.61277C100.433 5.48454 100.251 5.39005 100.102 5.39005H100.05L99.9902 5.29388C99.5093 4.53038 98.9279 3.98623 98.3252 3.73482C98.1706 3.66986 98.0087 3.62346 97.8337 3.59225C97.7544 3.57875 97.6898 3.57368 97.5401 3.572C97.4346 3.57031 97.3373 3.57115 97.3234 3.57284ZM97.7184 4.11277C98.3252 4.20557 98.9066 4.64764 99.4259 5.41114C99.4578 5.45754 99.5028 5.52672 99.5265 5.56469L99.5698 5.63471L99.5322 5.71232C99.5118 5.75535 99.4905 5.81525 99.4848 5.84477C99.4758 5.89202 99.4717 5.89961 99.4497 5.90973C99.4366 5.91564 99.3605 5.9477 99.282 5.9806C98.7586 6.20079 98.2164 6.48088 97.6652 6.81665C97.5818 6.86727 97.5099 6.90861 97.5058 6.90861C97.5017 6.90861 97.4305 6.86727 97.348 6.81581C96.7706 6.46064 96.0788 6.10883 95.5284 5.89286C95.4499 5.86165 95.373 5.83212 95.3583 5.82621L95.3321 5.81525L95.4057 5.69039C95.7001 5.19095 96.0452 4.78178 96.3977 4.51266C96.6774 4.29837 96.9833 4.16002 97.2809 4.11277C97.3856 4.0959 97.6113 4.0959 97.7184 4.11277ZM100.167 5.6558C100.285 5.69882 100.368 5.85827 100.345 6.00169C100.321 6.15945 100.209 6.25985 100.059 6.26153C99.9207 6.26238 99.8127 6.18224 99.7751 6.04894C99.7563 5.98145 99.7628 5.87261 99.7906 5.81103C99.8283 5.72498 99.8969 5.66592 99.9828 5.64314C100.025 5.63218 100.12 5.63893 100.167 5.6558ZM93.6835 5.94601C93.9321 5.97722 94.2289 6.03544 94.4678 6.1004C94.5201 6.11474 94.5634 6.12908 94.5634 6.13246C94.5634 6.13499 94.534 6.20585 94.4972 6.28937C94.1276 7.13218 93.8447 8.12596 93.6647 9.21173C93.6091 9.54413 93.547 10.0217 93.52 10.322C93.5151 10.3802 93.5143 10.3819 93.4619 10.4444C93.2247 10.7236 92.9401 11.0838 92.7365 11.3614C92.6744 11.4466 92.6204 11.5133 92.6172 11.509C92.6139 11.5056 92.5844 11.4584 92.5517 11.4053C92.0962 10.6637 91.765 9.97441 91.5467 9.31133C91.2474 8.40016 91.1926 7.65436 91.3823 7.06046C91.4183 6.94826 91.5271 6.72554 91.5925 6.63021C91.6636 6.52728 91.8313 6.35434 91.9278 6.28431C92.1829 6.09956 92.4789 5.9882 92.838 5.94348C92.9941 5.92323 92.9958 5.92323 93.2796 5.92577C93.484 5.92829 93.5772 5.93252 93.6835 5.94601ZM95.252 6.3594C95.7639 6.55766 96.302 6.82087 96.845 7.13808C96.935 7.19039 97.0086 7.2351 97.0086 7.23763C97.0086 7.24016 96.9693 7.268 96.9211 7.30091C96.6791 7.46457 96.2668 7.77166 95.97 8.00873C95.3886 8.47358 94.8734 8.94008 94.3247 9.49778C94.2216 9.60151 94.1382 9.68251 94.1382 9.67748C94.1382 9.67156 94.1513 9.58298 94.1668 9.48001C94.3361 8.37571 94.6199 7.34899 94.9911 6.50366C95.0753 6.31131 95.0803 6.30119 95.0917 6.30119C95.0975 6.30119 95.1694 6.32734 95.252 6.3594ZM93.4472 11.9983V12.6842L93.3809 12.599C93.2526 12.4345 93.0048 12.0953 92.9573 12.0203L92.9434 11.9975L93.0473 11.8515C93.1217 11.7461 93.4431 11.3124 93.4472 11.3124C93.4472 11.3124 93.4472 11.6212 93.4472 11.9983ZM102.785 12.173C102.972 12.2455 103.026 12.5248 102.884 12.6859C102.806 12.7762 102.653 12.8023 102.538 12.7458C102.486 12.7188 102.441 12.6698 102.412 12.6049C102.388 12.5534 102.385 12.5408 102.385 12.464C102.385 12.3856 102.387 12.3755 102.412 12.3239C102.451 12.243 102.511 12.1873 102.586 12.1637C102.629 12.1502 102.739 12.1553 102.785 12.173ZM92.7357 12.637C92.9287 12.9019 93.1438 13.176 93.394 13.4764L93.5143 13.6198L93.5241 13.7295C93.6549 15.151 94.0164 16.6291 94.5029 17.7284C94.5487 17.8313 94.5601 17.865 94.552 17.8692C94.5324 17.8811 94.2478 17.9511 94.0965 17.9814C93.605 18.081 93.1536 18.1046 92.7807 18.0481C92.3154 17.9789 91.9392 17.7857 91.6865 17.4879C91.4919 17.2584 91.3594 16.953 91.3054 16.6106C91.2621 16.3321 91.2662 15.9728 91.3169 15.6285C91.4469 14.7554 91.873 13.7016 92.5264 12.6386C92.5779 12.5543 92.6229 12.4851 92.6229 12.4851C92.6229 12.4851 92.6744 12.5534 92.7357 12.637ZM94.5855 14.7647C94.8186 14.9949 95.1424 15.2945 95.418 15.5349C95.8514 15.9137 96.5163 16.4317 96.9129 16.6991C96.9604 16.7312 97.0004 16.7607 97.0004 16.7641C97.0004 16.7675 96.9423 16.8037 96.8712 16.8459C96.4043 17.1192 95.8972 17.3732 95.4589 17.5537C95.2855 17.6255 95.086 17.7014 95.0836 17.6972C95.0729 17.6803 94.9641 17.4331 94.9175 17.3192C94.5863 16.5236 94.3124 15.4978 94.1668 14.5099C94.1553 14.4331 94.1447 14.3572 94.1415 14.3411C94.1374 14.3141 94.1489 14.3234 94.3034 14.4812C94.395 14.5739 94.5217 14.7014 94.5855 14.7647ZM100.844 14.4938C100.692 15.4868 100.441 16.4359 100.119 17.2348C100.065 17.3681 99.9649 17.5985 99.9337 17.6626L99.9158 17.698L99.7359 17.6279C99.3401 17.4744 98.923 17.2804 98.5297 17.0661C98.3546 16.9716 98.0251 16.7834 98.0112 16.7708C98.0079 16.7666 98.0447 16.7363 98.0929 16.7025C98.9933 16.0816 99.9362 15.2784 100.725 14.4601C100.801 14.3807 100.865 14.3192 100.867 14.3234C100.868 14.3268 100.858 14.4044 100.844 14.4938ZM97.7323 17.2306C98.3244 17.5874 98.9729 17.9097 99.5265 18.1223C99.6009 18.151 99.6639 18.1755 99.6655 18.1772C99.6705 18.1805 99.5568 18.3729 99.4734 18.502C99.2002 18.9212 98.8788 19.279 98.5665 19.5127C98.111 19.8518 97.6203 19.9724 97.1509 19.8594C96.8745 19.7927 96.576 19.635 96.3094 19.4148C96.2023 19.3262 95.9348 19.0529 95.84 18.9347C95.6846 18.7415 95.5472 18.5425 95.4082 18.3104C95.3567 18.2244 95.3362 18.1823 95.3428 18.1789C95.3485 18.1755 95.4041 18.1535 95.4671 18.1291C96.0575 17.903 96.7199 17.5715 97.348 17.1876L97.5033 17.0931L97.532 17.11C97.5475 17.1192 97.6383 17.1741 97.7323 17.2306Z"
            fill="#1738A4" />
        <path
            d="M102.422 7.04443C102.349 7.05708 102.268 7.10348 102.211 7.16507C102.153 7.22918 102.124 7.28993 102.11 7.37176C102.07 7.61392 102.253 7.83659 102.492 7.83659C102.736 7.83659 102.919 7.60379 102.869 7.35742C102.836 7.19544 102.709 7.06973 102.553 7.04443C102.493 7.0343 102.485 7.0343 102.422 7.04443Z"
            fill="#1738A4" />
        <path
            d="M101.114 7.92181C100.909 7.94626 100.702 8.02133 100.537 8.13188C100.224 8.34361 100.016 8.6676 99.946 9.05566C99.9248 9.17378 99.9272 9.41588 99.9509 9.5391C100.07 10.1567 100.548 10.6004 101.153 10.6561C101.393 10.678 101.632 10.6291 101.862 10.511C101.991 10.4443 102.096 10.3658 102.201 10.2578C102.646 9.79973 102.718 9.08521 102.378 8.53853C102.138 8.15131 101.699 7.90748 101.253 7.91341C101.21 7.91423 101.147 7.91761 101.114 7.92181Z"
            fill="#1738A4" />
        <path
            d="M103.645 8.08635C103.516 8.1159 103.4 8.18422 103.308 8.2863C103.121 8.493 103.083 8.79412 103.213 9.054C103.243 9.11475 103.267 9.14677 103.322 9.20415C103.461 9.34927 103.626 9.41505 103.821 9.40327C103.92 9.39735 103.978 9.3813 104.07 9.33495C104.295 9.2202 104.427 9 104.427 8.7393C104.427 8.6229 104.409 8.53935 104.361 8.43982C104.283 8.27535 104.126 8.14117 103.956 8.09392C103.884 8.07367 103.717 8.06947 103.645 8.08635ZM103.891 8.40187C104.016 8.44575 104.099 8.54782 104.123 8.6862C104.158 8.8836 104.002 9.08017 103.803 9.09195C103.624 9.1029 103.474 8.9781 103.443 8.79075C103.415 8.62207 103.52 8.45077 103.686 8.39677C103.737 8.3799 103.835 8.38245 103.891 8.40187Z"
            fill="#1738A4" />
    </g>
    <defs>
        <clipPath id="clip0_4293_3245">
            <rect width="24" height="24" fill="white" transform="translate(85.5469)" />
        </clipPath>
    </defs>
</svg>