<svg width="142" height="32" viewBox="0 0 142 32" fill="none" xmlns="http://www.w3.org/2000/svg">
<path d="M0.1 16C0.1 7.21867 7.21867 0.1 16 0.1C24.7813 0.1 31.9 7.21867 31.9 16C31.9 24.7813 24.7813 31.9 16 31.9C7.21867 31.9 0.1 24.7813 0.1 16Z" fill="white"/>
<path d="M0.1 16C0.1 7.21867 7.21867 0.1 16 0.1C24.7813 0.1 31.9 7.21867 31.9 16C31.9 24.7813 24.7813 31.9 16 31.9C7.21867 31.9 0.1 24.7813 0.1 16Z" stroke="#D0D5DD" stroke-width="0.2"/>
<path d="M15.6458 4.76377C15.6278 4.76602 15.5671 4.7739 15.5109 4.78065C15.1848 4.82002 14.8025 4.9415 14.4708 5.11248C13.6634 5.52756 12.8954 6.3217 12.2781 7.37795C12.2331 7.45556 12.1949 7.51968 12.1938 7.52081C12.1927 7.52305 12.1567 7.51406 12.114 7.50168C11.6844 7.37682 11.1312 7.26771 10.6589 7.21372C10.443 7.1901 9.80773 7.17997 9.59634 7.19685C8.67093 7.27334 7.95353 7.57817 7.42617 8.12148C7.28562 8.26546 7.20803 8.36107 7.10908 8.50843C6.84484 8.90213 6.68629 9.35545 6.61433 9.92575C6.59072 10.1204 6.58734 10.6727 6.60871 10.8875C6.70653 11.8414 6.99439 12.7998 7.51613 13.9021C7.80286 14.5096 8.21103 15.225 8.6147 15.8279C8.67542 15.919 8.7249 15.9966 8.7249 15.9989C8.7249 16.0022 8.65518 16.1102 8.5686 16.2407C7.50488 17.8481 6.81673 19.4972 6.63457 20.8729C6.58284 21.2643 6.57497 21.7851 6.61658 22.1012C6.68629 22.6457 6.84709 23.1012 7.10009 23.4803C7.59596 24.2238 8.3752 24.6614 9.42205 24.7863C9.62557 24.8099 10.1765 24.82 10.4003 24.8031C10.9232 24.7638 11.4269 24.676 11.9914 24.5264C12.1128 24.4938 12.1938 24.4769 12.1972 24.4848C12.2073 24.5163 12.4412 24.8965 12.5491 25.0562C13.2755 26.135 14.0997 26.8245 15.0094 27.1125C15.4771 27.2598 16.009 27.2868 16.5004 27.1856C17.1795 27.045 17.8486 26.6479 18.4625 26.0214C18.8403 25.6355 19.1855 25.1766 19.5015 24.6412C19.5555 24.5501 19.6027 24.4758 19.6061 24.4758C19.6095 24.4758 19.6859 24.4961 19.777 24.5208C20.2605 24.6524 20.7676 24.7469 21.2399 24.793C21.4434 24.8133 22.1338 24.8121 22.3137 24.793C23.1998 24.6952 23.8924 24.3824 24.3917 23.8571C24.828 23.3982 25.0855 22.8054 25.1765 22.0517C25.1968 21.8875 25.1968 21.2677 25.1777 21.0787C25.0978 20.3127 24.8887 19.5309 24.5367 18.6828C24.3467 18.2227 24.0319 17.5883 23.7676 17.1316L23.7069 17.0259L23.744 16.9572C23.8621 16.7402 23.8655 16.4949 23.7541 16.27C23.6484 16.0551 23.4562 15.9055 23.211 15.847C23.0828 15.8155 22.8951 15.8211 22.7747 15.8594C22.5038 15.9449 22.316 16.1271 22.2328 16.3824C22.208 16.4578 22.2035 16.4927 22.2035 16.6018C22.2035 16.7109 22.208 16.7458 22.2328 16.8211C22.3036 17.0382 22.4419 17.1935 22.6511 17.2936C22.7736 17.351 22.8332 17.3678 22.9648 17.3768L23.0637 17.3836L23.1874 17.6029C23.3595 17.9055 23.5787 18.3375 23.7114 18.6322C24.1106 19.5174 24.3332 20.2486 24.4344 21.0056C24.4693 21.2621 24.4727 21.8268 24.4412 22.0405C24.358 22.6018 24.1657 23.0292 23.8441 23.3701C23.4786 23.757 22.9749 23.9876 22.2912 24.0787C22.1068 24.1024 21.5199 24.1069 21.3074 24.0844C20.8879 24.0405 20.3325 23.937 19.9985 23.8403L19.9378 23.8223L20.0266 23.6265C20.7148 22.099 21.1769 20.2531 21.3748 18.2407C21.3939 18.0439 21.3962 17.9842 21.3861 17.937C21.3512 17.7705 21.205 17.6558 21.0262 17.6547C20.9543 17.6547 20.9307 17.6592 20.8677 17.6884C20.8002 17.721 20.7744 17.7458 20.5517 17.9865C19.2035 19.4511 17.7575 20.6974 16.2114 21.7278C15.9247 21.919 15.8977 21.9336 15.8741 21.9213C15.8595 21.9134 15.7065 21.8133 15.5334 21.6974C14.5394 21.0315 13.6173 20.3015 12.6661 19.4252C12.2635 19.054 11.2965 18.0742 11.1526 17.8909C11.1289 17.8605 11.1244 17.8369 11.1076 17.5928C11.0649 17.0022 11.0581 16.7604 11.0592 15.9494C11.0592 15.1597 11.0637 15.0202 11.1042 14.4139C11.1222 14.1564 11.1244 14.1429 11.1514 14.1102C11.3179 13.9078 12.0836 13.1249 12.4749 12.7548C14.4415 10.8988 16.5544 9.48143 18.6177 8.63104C18.7436 8.5793 18.8516 8.53655 18.8583 8.53655C18.8651 8.53655 18.8887 8.55118 18.9112 8.56917C19.1631 8.76715 19.5634 8.78627 19.8523 8.61417C19.9378 8.56355 20.0671 8.43531 20.1177 8.35095C20.283 8.07874 20.2594 7.73565 20.0581 7.48368C19.9221 7.31271 19.6713 7.18672 19.4667 7.18672H19.3947L19.3126 7.05849C18.6514 6.04049 17.852 5.31495 17.0232 4.97975C16.8107 4.89313 16.5881 4.83127 16.3475 4.78965C16.2384 4.77165 16.1496 4.7649 15.9438 4.76265C15.7987 4.7604 15.6649 4.76152 15.6458 4.76377ZM16.1889 5.48368C17.0233 5.60742 17.8227 6.19684 18.5367 7.21484C18.5806 7.27671 18.6424 7.36895 18.675 7.41957L18.7346 7.51293L18.6829 7.61642C18.6548 7.67378 18.6256 7.75365 18.6177 7.79302C18.6053 7.85601 18.5997 7.86614 18.5694 7.87963C18.5514 7.88751 18.4468 7.93025 18.3388 7.97412C17.6192 8.26771 16.8737 8.64116 16.1158 9.08886C16.0011 9.15635 15.9022 9.21147 15.8966 9.21147C15.8909 9.21147 15.7931 9.15635 15.6795 9.08773C14.8857 8.61417 13.9344 8.1451 13.1777 7.85714C13.0697 7.81552 12.964 7.77615 12.9438 7.76827L12.9078 7.75365L13.009 7.58717C13.4138 6.92126 13.8883 6.3757 14.373 6.01687C14.7575 5.73115 15.178 5.54668 15.5873 5.48368C15.7313 5.46119 16.0416 5.46119 16.1889 5.48368ZM19.5555 7.54105C19.7185 7.59842 19.8321 7.81102 19.8006 8.00224C19.7669 8.21259 19.614 8.34645 19.4071 8.3487C19.217 8.34983 19.0686 8.24297 19.0169 8.06524C18.991 7.97525 19 7.83014 19.0382 7.74803C19.09 7.63329 19.1844 7.55455 19.3025 7.52418C19.3598 7.50956 19.4914 7.51855 19.5555 7.54105ZM10.6409 7.928C10.9828 7.96962 11.3909 8.04724 11.7193 8.13385C11.7912 8.15298 11.8508 8.1721 11.8508 8.1766C11.8508 8.17997 11.8104 8.27446 11.7598 8.38582C11.2515 9.50956 10.8625 10.8346 10.6151 12.2823C10.5386 12.7255 10.4532 13.3622 10.4161 13.7626C10.4093 13.8403 10.4082 13.8425 10.3362 13.9258C10.0101 14.2981 9.61883 14.7784 9.33884 15.1485C9.25338 15.2621 9.17917 15.351 9.17467 15.3453C9.17018 15.3408 9.1297 15.2778 9.08472 15.207C8.45841 14.2182 8.00301 13.2992 7.70278 12.4151C7.29124 11.2002 7.2159 10.2058 7.47677 9.41394C7.52625 9.26434 7.6758 8.96737 7.76575 8.84027C7.86358 8.70303 8.09409 8.47243 8.22677 8.37907C8.5776 8.13273 8.98464 7.98425 9.47827 7.92463C9.69304 7.89763 9.69529 7.89763 10.0855 7.90101C10.3666 7.90438 10.4948 7.91001 10.6409 7.928ZM12.7976 8.47919C13.5015 8.74353 14.2414 9.09448 14.988 9.51743C15.1117 9.58717 15.2129 9.64679 15.2129 9.65016C15.2129 9.65354 15.1589 9.69066 15.0926 9.73453C14.7598 9.95275 14.193 10.3622 13.7849 10.6783C12.9854 11.2981 12.277 11.9201 11.5225 12.6637C11.3808 12.802 11.2661 12.91 11.2661 12.9033C11.2661 12.8954 11.2841 12.7773 11.3055 12.64C11.5382 11.1676 11.9284 9.79865 12.4389 8.67154C12.5547 8.41507 12.5615 8.40157 12.5772 8.40157C12.5851 8.40157 12.684 8.43644 12.7976 8.47919ZM10.316 15.9977V16.9123L10.2249 16.7986C10.0484 16.5793 9.70766 16.1271 9.64244 16.027L9.62332 15.9966L9.76613 15.802C9.86845 15.6614 10.3104 15.0832 10.316 15.0832C10.316 15.0832 10.316 15.4949 10.316 15.9977ZM23.1559 16.2306C23.4123 16.3273 23.4865 16.6997 23.292 16.9145C23.184 17.0349 22.9738 17.0697 22.8164 16.9944C22.7444 16.9584 22.6825 16.8931 22.6421 16.8065C22.6095 16.7379 22.6061 16.721 22.6061 16.6187C22.6061 16.5141 22.6083 16.5006 22.6421 16.4319C22.696 16.324 22.7781 16.2497 22.8816 16.2182C22.9412 16.2002 23.0918 16.207 23.1559 16.2306ZM9.33772 16.8493C9.60308 17.2025 9.89881 17.568 10.2429 17.9685L10.4082 18.1597L10.4217 18.306C10.6016 20.2013 11.0986 22.1721 11.7676 23.6378C11.8306 23.775 11.8463 23.82 11.8351 23.8256C11.8081 23.8414 11.4168 23.9348 11.2088 23.9752C10.533 24.108 9.91231 24.1395 9.39956 24.0641C8.75976 23.9719 8.24251 23.7143 7.89506 23.3172C7.62745 23.0112 7.44529 22.604 7.37108 22.1474C7.31148 21.7761 7.3171 21.297 7.38682 20.838C7.5656 19.6738 8.15144 18.2688 9.04986 16.8515C9.1207 16.739 9.18142 16.6468 9.18254 16.6468C9.18367 16.6468 9.25338 16.7379 9.33772 16.8493ZM11.8812 19.6862C12.2017 19.9932 12.6469 20.3926 13.0259 20.7132C13.6218 21.2182 14.536 21.9089 15.0813 22.2655C15.1466 22.3082 15.2017 22.3476 15.2017 22.3521C15.2017 22.3566 15.1218 22.4049 15.024 22.4612C14.3819 22.8256 13.6848 23.1642 13.0821 23.4049C12.8437 23.5006 12.5694 23.6018 12.566 23.5962C12.5514 23.5737 12.4018 23.2441 12.3377 23.0922C11.8823 22.0315 11.5056 20.6637 11.3055 19.3465C11.2897 19.2441 11.2751 19.1429 11.2706 19.1215C11.265 19.0855 11.2807 19.0979 11.4933 19.3082C11.6192 19.4319 11.7935 19.6018 11.8812 19.6862ZM20.4865 19.3251C20.2774 20.649 19.9322 21.9145 19.4891 22.9797C19.4149 23.1575 19.2777 23.4646 19.235 23.5501L19.2103 23.5973L18.9629 23.5039C18.4187 23.2992 17.8452 23.0405 17.3044 22.7548C17.0637 22.6288 16.6106 22.3779 16.5915 22.3611C16.587 22.3555 16.6376 22.315 16.7039 22.27C17.9419 21.4421 19.2384 20.3712 20.3235 19.2801C20.428 19.1743 20.5158 19.0922 20.518 19.0979C20.5191 19.1024 20.5056 19.2058 20.4865 19.3251ZM16.208 22.9741C17.0221 23.4499 17.9138 23.8796 18.675 24.1631C18.7774 24.2013 18.864 24.234 18.8662 24.2362C18.873 24.2407 18.7167 24.4972 18.602 24.6693C18.2264 25.2283 17.7845 25.7053 17.355 26.0169C16.7286 26.4691 16.054 26.6299 15.4086 26.4792C15.0285 26.3903 14.6181 26.18 14.2515 25.8864C14.1042 25.7683 13.7365 25.4038 13.6061 25.2463C13.3924 24.9887 13.2035 24.7233 13.0124 24.4139C12.9415 24.2992 12.9134 24.243 12.9224 24.2385C12.9303 24.234 13.0068 24.2047 13.0933 24.1721C13.9052 23.8706 14.816 23.4286 15.6795 22.9168L15.8932 22.7908L15.9325 22.8133C15.9539 22.8256 16.0787 22.8988 16.208 22.9741Z" fill="#1738A4"/>
<path d="M22.6567 9.39258C22.5555 9.40945 22.4442 9.47132 22.3666 9.55343C22.2867 9.63892 22.2463 9.71991 22.2271 9.82902C22.172 10.1519 22.4239 10.4488 22.7522 10.4488C23.0885 10.4488 23.3403 10.1384 23.2706 9.8099C23.2256 9.59393 23.0513 9.42632 22.8366 9.39258C22.7545 9.37908 22.7433 9.37908 22.6567 9.39258Z" fill="#1738A4"/>
<path d="M20.8576 10.5624C20.5754 10.595 20.2909 10.6951 20.0649 10.8425C19.6342 11.1248 19.3486 11.5568 19.2519 12.0742C19.2227 12.2317 19.226 12.5545 19.2587 12.7188C19.4228 13.5422 20.0795 14.1338 20.9116 14.2081C21.2422 14.2373 21.5705 14.1721 21.8865 14.0146C22.0641 13.9257 22.2081 13.8211 22.3531 13.6771C22.9637 13.0663 23.0638 12.1136 22.596 11.3847C22.2654 10.8684 21.6616 10.5433 21.0488 10.5512C20.9903 10.5523 20.9037 10.5568 20.8576 10.5624Z" fill="#1738A4"/>
<path d="M24.3377 10.7818C24.1601 10.8212 24.0015 10.9123 23.8745 11.0484C23.617 11.324 23.5653 11.7255 23.744 12.072C23.7856 12.153 23.8183 12.1957 23.8936 12.2722C24.0847 12.4657 24.3119 12.5534 24.5795 12.5377C24.7167 12.5298 24.7965 12.5084 24.9225 12.4466C25.2317 12.2936 25.4127 12 25.4127 11.6524C25.4127 11.4972 25.388 11.3858 25.3228 11.2531C25.2148 11.0338 24.9989 10.8549 24.765 10.7919C24.6672 10.7649 24.4367 10.7593 24.3377 10.7818ZM24.6762 11.2025C24.8482 11.261 24.9618 11.3971 24.9955 11.5816C25.0428 11.8448 24.8291 12.1069 24.5559 12.1226C24.3085 12.1372 24.1027 11.9708 24.06 11.721C24.0218 11.4961 24.1657 11.2677 24.394 11.1957C24.4648 11.1732 24.5997 11.1766 24.6762 11.2025Z" fill="#1738A4"/>
<path d="M112.239 17.0043V7.87042H120.042V9.41014H113.909V15.4646H120.094V17.0043H112.239ZM113.152 13.0898V11.5762H119.376V13.0898H113.152Z" fill="#1738A4"/>
<path d="M98.389 17.0043V7.87042H103.099C103.943 7.87042 104.691 7.99221 105.344 8.23578C105.996 8.47935 106.544 8.81426 106.988 9.24051C107.432 9.65806 107.762 10.1408 107.98 10.6889C108.206 11.2369 108.319 11.8197 108.319 12.4374C108.319 13.0637 108.206 13.6509 107.98 14.1989C107.762 14.7469 107.427 15.2341 106.975 15.6603C106.531 16.0779 105.983 16.4084 105.331 16.652C104.687 16.8869 103.943 17.0043 103.099 17.0043H98.389ZM100.085 15.6864L99.9548 15.4385H103.034C103.652 15.4385 104.178 15.3602 104.613 15.2036C105.057 15.0384 105.418 14.8165 105.696 14.5382C105.983 14.2598 106.192 13.9423 106.322 13.5856C106.462 13.229 106.531 12.8462 106.531 12.4374C106.531 12.0372 106.462 11.6588 106.322 11.3022C106.192 10.9455 105.983 10.628 105.696 10.3496C105.418 10.0626 105.057 9.84073 104.613 9.68415C104.178 9.51887 103.652 9.43623 103.034 9.43623H99.9157L100.085 9.21441V15.6864Z" fill="#1738A4"/>
<path d="M88.86 17.1348C88.0423 17.1348 87.2899 17.0174 86.6027 16.7825C85.9241 16.5389 85.3326 16.204 84.8281 15.7778C84.3235 15.3428 83.9321 14.8427 83.6537 14.2772C83.384 13.7031 83.2492 13.0855 83.2492 12.4243C83.2492 11.7632 83.384 11.15 83.6537 10.5845C83.9321 10.0104 84.3235 9.5102 84.8281 9.08395C85.3326 8.649 85.9241 8.31409 86.6027 8.07922C87.2899 7.83565 88.0423 7.71387 88.86 7.71387C89.6777 7.71387 90.4258 7.83565 91.1044 8.07922C91.7916 8.31409 92.3831 8.649 92.8789 9.08395C93.3835 9.5102 93.7749 10.0104 94.0533 10.5845C94.3317 11.15 94.4708 11.7632 94.4708 12.4243C94.4708 13.0855 94.3317 13.7031 94.0533 14.2772C93.7749 14.8427 93.3835 15.3428 92.8789 15.7778C92.3831 16.204 91.7916 16.5389 91.1044 16.7825C90.4258 17.0174 89.6777 17.1348 88.86 17.1348ZM88.86 15.5168C89.4342 15.5168 89.9561 15.4385 90.4258 15.282C90.8956 15.1254 91.3044 14.9079 91.6524 14.6295C92.0003 14.3425 92.27 14.0119 92.4614 13.6378C92.6528 13.2638 92.7485 12.8593 92.7485 12.4243C92.7485 11.9894 92.6528 11.5849 92.4614 11.2108C92.27 10.8368 92.0003 10.5106 91.6524 10.2322C91.3044 9.94515 90.8956 9.72332 90.4258 9.56674C89.9561 9.41016 89.4342 9.33187 88.86 9.33187C88.2946 9.33187 87.7727 9.41016 87.2942 9.56674C86.8158 9.72332 86.4026 9.94515 86.0546 10.2322C85.7154 10.5106 85.45 10.8368 85.2587 11.2108C85.076 11.5849 84.9846 11.9894 84.9846 12.4243C84.9846 12.8593 85.076 13.2638 85.2587 13.6378C85.45 14.0119 85.7154 14.3425 86.0546 14.6295C86.4026 14.9079 86.8158 15.1254 87.2942 15.282C87.7727 15.4385 88.2946 15.5168 88.86 15.5168Z" fill="#1738A4"/>
<path d="M69.3007 17.0043V7.87042H70.9579L78.0823 15.0079L77.9257 15.0601C77.8822 14.773 77.8431 14.4816 77.8083 14.1859C77.7822 13.8814 77.7604 13.5769 77.743 13.2725C77.7256 12.968 77.7083 12.6635 77.6909 12.3591C77.6822 12.0546 77.6735 11.7589 77.6648 11.4718C77.6648 11.176 77.6648 10.889 77.6648 10.6106V7.87042H79.348V17.0043H77.6648L70.5142 9.97122L70.723 9.87988C70.7404 10.0278 70.7578 10.2017 70.7752 10.4018C70.7926 10.6019 70.8143 10.8194 70.8404 11.0542C70.8665 11.2891 70.8883 11.5414 70.9057 11.811C70.9318 12.072 70.9492 12.346 70.9579 12.6331C70.9753 12.9115 70.984 13.1898 70.984 13.4682V17.0043H69.3007Z" fill="#1738A4"/>
<path d="M56.8018 17.0043V7.87042H62.2169C62.7823 7.87042 63.2955 7.99656 63.7566 8.24883C64.2263 8.5011 64.6004 8.8447 64.8787 9.27965C65.1571 9.7146 65.2963 10.2017 65.2963 10.7411C65.2963 11.3152 65.144 11.8328 64.8396 12.2938C64.5351 12.7549 64.1306 13.1202 63.6261 13.3899C63.1215 13.6596 62.5648 13.7944 61.9559 13.7944H58.4981V17.0043H56.8018ZM58.4981 12.2286H61.7341C62.0472 12.2286 62.3386 12.1634 62.6083 12.0329C62.878 11.8937 63.0911 11.7154 63.2477 11.4979C63.413 11.2717 63.4956 11.0238 63.4956 10.7541C63.4956 10.5019 63.413 10.28 63.2477 10.0887C63.0911 9.88858 62.878 9.732 62.6083 9.61891C62.3386 9.49713 62.0472 9.43623 61.7341 9.43623H58.4981V12.2286Z" fill="#1738A4"/>
<path d="M47.6713 17.0827C46.7405 17.0827 45.9228 16.8913 45.2182 16.5085C44.5223 16.1171 43.9786 15.5864 43.5872 14.9166C43.1957 14.2468 43 13.4856 43 12.6331V7.85742H44.7093V12.5809C44.7093 13.1464 44.8398 13.6509 45.1008 14.0946C45.3618 14.5295 45.7184 14.8731 46.1708 15.1254C46.6231 15.3777 47.1233 15.5038 47.6713 15.5038C48.2629 15.5038 48.7848 15.3777 49.2371 15.1254C49.6982 14.8731 50.0592 14.5295 50.3202 14.0946C50.5811 13.6509 50.7116 13.1464 50.7116 12.5809V7.85742H52.3557V12.6331C52.3557 13.4856 52.16 14.2468 51.7685 14.9166C51.3771 15.5864 50.8334 16.1171 50.1375 16.5085C49.4416 16.8913 48.6195 17.0827 47.6713 17.0827Z" fill="#1738A4"/>
<path d="M89.7186 27.1523C88.8312 27.1523 88.1391 26.9337 87.6424 26.4967C87.1457 26.053 86.8974 25.4039 86.8974 24.5496C86.8974 23.6887 87.1457 23.0397 87.6424 22.6026C88.1391 22.1589 88.8312 21.9371 89.7186 21.9371H92.202C92.7848 21.9371 93.2285 22.0761 93.5331 22.3543C93.8444 22.6258 94 23.0165 94 23.5265C94 24.5662 93.4007 25.0861 92.202 25.0861H88.4471C88.5861 25.702 89.01 26.0099 89.7186 26.0099H93.7417V27.1523H89.7186ZM89.7186 23.0795C89.0365 23.0795 88.6159 23.3675 88.457 23.9437H92.1325C92.2649 23.9437 92.3676 23.904 92.4404 23.8245C92.5199 23.745 92.5596 23.6357 92.5596 23.4967C92.5596 23.2185 92.4172 23.0795 92.1325 23.0795H89.7186Z" fill="#1738A4"/>
<path d="M80.9644 29.3377V28.1953H83.9644C84.3617 28.1953 84.5604 27.9934 84.5604 27.5894V27.1026H82.375C81.4875 27.1026 80.7955 26.8841 80.2988 26.447C79.8021 26.0099 79.5538 25.3775 79.5538 24.5497C79.5538 23.7152 79.8021 23.0795 80.2988 22.6424C80.7955 22.2053 81.4875 21.9868 82.375 21.9868H86.0008V27.7682C86.0008 28.2384 85.865 28.6159 85.5935 28.9006C85.322 29.192 84.8981 29.3377 84.322 29.3377H80.9644ZM82.375 25.9603H84.5604V23.1291H82.375C81.9445 23.1291 81.6134 23.2483 81.3816 23.4868C81.1564 23.7185 81.0438 24.0728 81.0438 24.5497C81.0438 25.0199 81.1564 25.3742 81.3816 25.6126C81.6134 25.8444 81.9445 25.9603 82.375 25.9603Z" fill="#1738A4"/>
<path d="M78.6584 27.1026H77.218V20H78.6584V27.1026ZM78.41 27.1026H74.9829C74.0955 27.1026 73.4034 26.8841 72.9067 26.447C72.41 26.0099 72.1617 25.3775 72.1617 24.5497C72.1617 23.7152 72.41 23.0795 72.9067 22.6424C73.4034 22.2053 74.0955 21.9867 74.9829 21.9867H78.3107V23.1291H74.9829C74.5524 23.1291 74.2213 23.2483 73.9895 23.4867C73.7643 23.7185 73.6517 24.0728 73.6517 24.5497C73.6517 25.0199 73.7643 25.3742 73.9895 25.6126C74.2213 25.8444 74.5524 25.9602 74.9829 25.9602H78.41V27.1026Z" fill="#1738A4"/>
<path d="M69.8284 27.1027V21.9868H71.2688V27.1027H69.8284ZM69.8185 21.1424V20.0199H71.2787V21.1424H69.8185Z" fill="#1738A4"/>
<path d="M63.4452 27.1026V21.9868H67.3591C67.9352 21.9868 68.3591 22.1325 68.6306 22.4238C68.9021 22.7086 69.0379 23.0861 69.0379 23.5563V24.6192H67.5776V23.7351C67.5776 23.3377 67.379 23.1391 66.9816 23.1391H64.9055V27.1026H63.4452Z" fill="#1738A4"/>
<path d="M54 27.1026V20.0199L59.9801 20C60.7682 20 61.351 20.1656 61.7285 20.4967C62.1126 20.8212 62.3046 21.3113 62.3046 21.9669C62.3046 22.6225 62.0861 23.1026 61.649 23.4073C61.9404 23.5662 62.1556 23.7781 62.2947 24.043C62.4337 24.3013 62.5033 24.6357 62.5033 25.0463C62.5033 25.7152 62.3112 26.2251 61.9271 26.5761C61.5496 26.9205 60.9669 27.0927 60.1788 27.0927L54 27.1026ZM59.7914 21.2715H55.5894V22.8609H59.7914C60.394 22.8609 60.6953 22.5894 60.6953 22.0464C60.6953 21.5298 60.394 21.2715 59.7914 21.2715ZM59.99 24.1324H55.5894V25.8212H59.99C60.5927 25.8212 60.894 25.5364 60.894 24.9669C60.894 24.4106 60.5927 24.1324 59.99 24.1324Z" fill="#1738A4"/>
<path d="M50.4347 22.0271C50.176 22.0841 49.9452 22.2161 49.7602 22.4132C49.3852 22.8124 49.3099 23.3941 49.5702 23.896C49.6308 24.0133 49.6783 24.0752 49.788 24.186C50.0663 24.4663 50.3971 24.5934 50.7868 24.5706C50.9865 24.5592 51.1028 24.5282 51.2862 24.4386C51.7364 24.217 52 23.7917 52 23.2882C52 23.0634 51.964 22.9021 51.869 22.7098C51.7119 22.3921 51.3975 22.133 51.0569 22.0417C50.9145 22.0026 50.5788 21.9945 50.4347 22.0271ZM50.9276 22.6365C51.1781 22.7212 51.3435 22.9184 51.3926 23.1856C51.4613 23.5669 51.1503 23.9465 50.7524 23.9693C50.3922 23.9905 50.0925 23.7494 50.0303 23.3876C49.9747 23.0617 50.1842 22.731 50.5166 22.6267C50.6198 22.5941 50.8162 22.599 50.9276 22.6365Z" fill="#174BDE"/>
<path d="M45.3672 21.7092C44.9562 21.7565 44.542 21.9015 44.2129 22.1149C43.5858 22.5239 43.1699 23.1496 43.0291 23.8992C42.9865 24.1273 42.9914 24.5949 43.0389 24.8328C43.278 26.0255 44.2342 26.8826 45.4458 26.9902C45.9272 27.0325 46.4052 26.938 46.8653 26.7099C47.124 26.5812 47.3336 26.4296 47.5448 26.2211C48.4339 25.3363 48.5796 23.9562 47.8985 22.9003C47.4171 22.1524 46.5379 21.6815 45.6455 21.6929C45.5604 21.6946 45.4343 21.7011 45.3672 21.7092Z" fill="#174BDE"/>
<path d="M47.9869 20.0147C47.8395 20.0391 47.6774 20.1287 47.5644 20.2477C47.4482 20.3715 47.3892 20.4888 47.3614 20.6469C47.2812 21.1145 47.6479 21.5447 48.126 21.5447C48.6156 21.5447 48.9824 21.095 48.8808 20.6192C48.8153 20.3063 48.5616 20.0635 48.2488 20.0147C48.1293 19.9951 48.1129 19.9951 47.9869 20.0147Z" fill="#174BDE"/>
</svg>
